HIERARCHY
ROOT Hips
{
	OFFSET 0.000000 0.000000 0.000000
	CHANNELS 6 Xposition Yposition Zposition Xrotation Yrotation Zrotation
	JOINT LeftUpLeg_virtual
	{
		OFFSET 0.000000 0.000000 0.000000
		CHANNELS 3 Xrotation Yrotation Zrotation
		JOINT LeftUpLeg
		{
			OFFSET 10.205400 -3.823500 0.155100
			CHANNELS 3 Xrotation Yrotation Zrotation
			JOINT LeftLeg
			{
				OFFSET 0.708757 -12.982077 0.567790
				CHANNELS 3 Xrotation Yrotation Zrotation
				JOINT LeftFoot
				{
					OFFSET -0.708756 -10.717838 -2.184338
					CHANNELS 3 Xrotation Yrotation Zrotation
					JOINT LeftToeBase
					{
						OFFSET 0.108149 -7.191104 7.560241
						CHANNELS 3 Xrotation Yrotation Zrotation
						JOINT LeftToe_End
						{
							OFFSET 0.070230 0.081724 4.490308
							CHANNELS 3 Xrotation Yrotation Zrotation
							End Site
							{
								OFFSET 0 0 0
							}
						}
					}
				}
			}
		}
	}
	JOINT RightUpLeg_virtual
	{
		OFFSET 0.000000 0.000000 0.000000
		CHANNELS 3 Xrotation Yrotation Zrotation
		JOINT RightUpLeg
		{
			OFFSET -10.205400 -3.823500 0.005500
			CHANNELS 3 Xrotation Yrotation Zrotation
			JOINT RightLeg
			{
				OFFSET -0.708756 -12.982134 0.610632
				CHANNELS 3 Xrotation Yrotation Zrotation
				JOINT RightFoot
				{
					OFFSET 0.708754 -10.717769 -1.945823
					CHANNELS 3 Xrotation Yrotation Zrotation
					JOINT RightToeBase
					{
						OFFSET -0.108140 -7.191069 7.372968
						CHANNELS 3 Xrotation Yrotation Zrotation
						JOINT RightToe_End
						{
							OFFSET -0.070227 0.081735 4.479403
							CHANNELS 3 Xrotation Yrotation Zrotation
							End Site
							{
								OFFSET 0 0 0
							}
						}
					}
				}
			}
		}
	}
	JOINT Spine_virtual
	{
		OFFSET 0.000000 0.000000 0.000000
		CHANNELS 3 Xrotation Yrotation Zrotation
		JOINT Spine
		{
			OFFSET 0.000000 6.876099 0.125700
			CHANNELS 3 Xrotation Yrotation Zrotation
			JOINT Spine1
			{
				OFFSET 0.000000 5.730043 0.104720
				CHANNELS 3 Xrotation Yrotation Zrotation
				JOINT Spine1_split
				{
					OFFSET 0.000000 5.730043 0.104720
					CHANNELS 3 Xrotation Yrotation Zrotation
					JOINT Spine2
					{
						OFFSET 0.000000 5.730043 0.104720
						CHANNELS 3 Xrotation Yrotation Zrotation
						JOINT Neck_virtual
						{
							OFFSET 0.000000 0.000000 0.000000
							CHANNELS 3 Xrotation Yrotation Zrotation
							JOINT Neck
							{
								OFFSET 0.000000 10.314075 0.188496
								CHANNELS 3 Xrotation Yrotation Zrotation
								JOINT Head
								{
									OFFSET 0.000000 7.643700 -2.377400
									CHANNELS 3 Xrotation Yrotation Zrotation
									JOINT HeadTop_End
									{
										OFFSET 0.000000 43.788605 -13.619600
										CHANNELS 3 Xrotation Yrotation Zrotation
										End Site
										{
											OFFSET 0 0 0
										}
									}
								}
							}
						}
						JOINT LeftShoulder_virtual
						{
							OFFSET 0.000000 0.000000 0.000000
							CHANNELS 3 Xrotation Yrotation Zrotation
							JOINT LeftShoulder
							{
								OFFSET 2.196100 4.412489 0.087492
								CHANNELS 3 Xrotation Yrotation Zrotation
								JOINT LeftShoulder_split
								{
									OFFSET 2.196100 4.412489 0.087492
									CHANNELS 3 Xrotation Yrotation Zrotation
									JOINT LeftArm
									{
										OFFSET 8.771219 -2.981674 -0.026999
										CHANNELS 3 Xrotation Yrotation Zrotation
										JOINT LeftForeArm
										{
											OFFSET 8.512804 0.000000 -0.000000
											CHANNELS 3 Xrotation Yrotation Zrotation
											JOINT LeftHand
											{
												OFFSET 18.484802 0.000000 -0.000000
												CHANNELS 3 Xrotation Yrotation Zrotation
												End Site
												{
													OFFSET 0 0 0
												}
											}
										}
									}
								}
							}
						}
						JOINT RightShoulder_virtual
						{
							OFFSET 0.000000 0.000000 0.000000
							CHANNELS 3 Xrotation Yrotation Zrotation
							JOINT RightShoulder
							{
								OFFSET -2.196100 4.412496 0.070690
								CHANNELS 3 Xrotation Yrotation Zrotation
								JOINT RightShoulder_split
								{
									OFFSET -2.196100 4.412496 0.070690
									CHANNELS 3 Xrotation Yrotation Zrotation
									JOINT RightArm
									{
										OFFSET -8.771282 -2.981682 -0.094208
										CHANNELS 3 Xrotation Yrotation Zrotation
										JOINT RightForeArm
										{
											OFFSET -8.494598 0.000000 0.000000
											CHANNELS 3 Xrotation Yrotation Zrotation
											JOINT RightHand
											{
												OFFSET -18.483803 0.000000 0.000001
												CHANNELS 3 Xrotation Yrotation Zrotation
												End Site
												{
													OFFSET 0 0 0
												}
											}
										}
									}
								}
							}
						}
					}
				}
			}
		}
	}
}
MOTION
Frames: 4
Frame Time: 0.03333333
6.039939 31.574015 -2.433008 0.000000 0.000000 0.000000 9.272879 -56.115106 17.662053 -22.132050 28.580180 31.332882 29.248038 -14.335008 -7.321059 0.863641 -4.761462 -9.871167 -4.108655 -5.226816 -0.516016 0.000000 0.000000 0.000000 8.508239 -57.669275 17.528446 -25.427329 -18.691839 -29.484929 35.724652 14.026349 1.753827 -24.692143 -6.450011 30.696164 6.685418 0.143327 -16.395038 0.000000 0.000000 0.000000 9.410066 -51.604968 18.585718 5.574029 -1.642030 1.288518 5.285130 -2.423611 -5.593985 0.108960 -1.265011 0.243888 0.000000 0.000000 0.000000 10.174052 -2.773344 -2.473847 -7.834308 36.740154 34.614002 -145.187268 82.567213 159.088643 0.000000 0.000000 0.000000 10.061460 -6.601788 -0.308429 -4.338243 5.458948 4.936740 -0.032409 -9.878376 -1.229223 -26.699607 13.259018 -61.940144 -14.782005 -55.586292 -9.532306 0.000000 0.000000 0.000000 3.024762 -9.345348 -2.280152 6.105539 13.167190 -15.125613 -16.792770 2.953351 -7.188897 -22.085826 -14.105649 56.707065 3.562758 36.260518 13.273866 0.000000 0.000000 0.000000 
5.971099 31.554604 -2.846165 0.000000 0.000000 0.000000 10.614860 -57.833459 19.173224 -24.404327 25.480905 33.514133 29.477136 -15.601187 -7.472324 5.151088 -6.146676 -9.057035 -5.110349 -4.926028 -1.672928 0.000000 0.000000 0.000000 9.849216 -59.396862 19.113272 -26.883228 -16.629634 -28.518533 36.910824 14.395426 2.049338 -23.879144 -5.331364 29.413202 5.670394 -0.420077 -15.329142 0.000000 0.000000 0.000000 10.393569 -53.303421 20.046271 5.495574 -1.225782 0.617569 4.710204 -1.906725 -6.095710 0.148328 -1.282067 0.241063 0.000000 0.000000 0.000000 9.907265 -2.354707 -2.745884 -9.737972 37.543695 36.996587 -153.791449 83.905391 167.584224 0.000000 0.000000 0.000000 9.511982 -6.122535 -0.477559 -4.649256 7.329724 5.006657 0.810737 -11.932395 -1.323837 -27.837174 14.458843 -62.491375 -15.396112 -58.824956 -9.403232 0.000000 0.000000 0.000000 1.953348 -9.232321 -2.653449 6.205183 12.602138 -15.140917 -17.454992 2.377177 -8.161568 -21.598043 -13.255083 57.932401 5.413450 34.721021 11.890640 0.000000 0.000000 0.000000 
5.826414 31.602991 -3.214119 0.000000 0.000000 0.000000 11.904327 -58.994762 20.668695 -26.604871 22.496763 34.730959 29.322716 -16.436697 -7.346410 8.636099 -6.950763 -7.952761 -4.752239 -4.570371 -2.673642 0.000000 0.000000 0.000000 11.313211 -60.753747 20.889917 -27.491488 -14.424046 -27.098145 37.965723 14.578617 2.074658 -23.612266 -4.545417 27.941358 4.807256 -1.028035 -13.678600 0.000000 0.000000 0.000000 11.254549 -54.486960 21.365542 5.152576 -0.770159 -0.036791 4.244154 -1.512242 -6.588104 0.187701 -1.313216 0.246736 0.000000 0.000000 0.000000 9.740867 -2.065443 -2.988469 -11.540763 38.347554 38.831992 -163.881865 85.195354 177.510975 0.000000 0.000000 0.000000 9.030487 -5.762795 -0.678398 -4.984765 8.895623 5.349604 1.810350 -13.701278 -1.537730 -28.745138 16.263232 -62.876509 -16.231441 -62.499414 -9.606536 0.000000 0.000000 0.000000 0.973611 -9.224068 -3.051008 6.251905 11.697155 -15.045187 -18.354861 1.600277 -8.883782 -20.758661 -12.135855 59.061595 7.235058 33.462032 10.505194 0.000000 0.000000 0.000000 
5.597055 31.685369 -3.574661 0.000000 0.000000 0.000000 12.993787 -59.793464 22.040170 -28.436939 19.915764 34.900364 28.697733 -16.774485 -7.015569 10.813982 -7.071715 -6.706957 -3.309308 -4.226003 -3.426161 0.000000 0.000000 0.000000 12.823129 -61.874725 22.749509 -27.265787 -12.300997 -25.420882 38.509648 14.529286 1.915836 -24.732074 -4.083557 25.767196 5.501959 -1.677184 -11.456269 0.000000 0.000000 0.000000 11.915718 -55.300876 22.496148 4.569527 -0.243949 -0.594101 3.914573 -1.215732 -7.108133 0.230634 -1.367490 0.265561 0.000000 0.000000 0.000000 9.672317 -1.882480 -3.223918 -13.302797 39.154565 40.160443 -177.302326 86.463044 -169.266363 0.000000 0.000000 0.000000 8.629565 -5.492034 -0.986632 -5.333612 10.090519 5.837181 2.855218 -15.108558 -1.798652 -29.275950 18.395436 -62.973928 -17.411303 -66.337953 -10.271040 0.000000 0.000000 0.000000 0.133661 -9.269206 -3.502992 6.221709 10.480270 -14.917861 -19.471233 0.796289 -9.450216 -19.691802 -10.822000 59.904195 9.005674 32.363308 9.148851 0.000000 0.000000 0.000000 
